<?xml version="1.0" standalone="no"?>
<!DOCTYPE svg PUBLIC "-//W3C//DTD SVG 20010904//EN"
 "http://www.w3.org/TR/2001/REC-SVG-20010904/DTD/svg10.dtd">
<svg version="1.0" xmlns="http://www.w3.org/2000/svg"
 width="384.000000pt" height="384.000000pt" viewBox="0 0 384.000000 384.000000"
 preserveAspectRatio="xMidYMid meet">
<metadata>
Created by potrace 1.11, written by Peter Selinger 2001-2013
</metadata>
<g transform="translate(0.000000,384.000000) scale(0.100000,-0.100000)"
fill="#000000" stroke="none">
<path d="M1690 3825 c-290 -36 -583 -144 -828 -305 -289 -190 -511 -444 -667
-765 -259 -531 -259 -1139 0 -1670 262 -538 731 -909 1317 -1039 769 -171
1574 157 2011 819 283 430 382 963 271 1462 -69 309 -206 591 -406 828 -415
494 -1060 748 -1698 670z m700 -1048 c0 -2 -185 -376 -410 -830 l-411 -827
-49 0 c-28 0 -50 4 -50 9 0 6 140 290 311 633 170 343 354 712 407 820 l97
197 53 0 c28 1 52 -1 52 -2z m-1010 -438 l0 -50 -376 -186 c-206 -102 -372
-189 -367 -192 4 -4 173 -88 375 -187 l367 -179 1 -52 c0 -29 -2 -53 -3 -53
-10 0 -957 471 -957 476 0 6 939 472 953 473 4 1 7 -22 7 -50z m1572 -186
l481 -238 -479 -237 c-263 -130 -482 -237 -486 -237 -5 -1 -8 22 -8 49 l0 51
371 184 c205 102 374 186 376 189 2 2 -165 87 -371 189 l-376 186 0 50 c0 28
2 51 5 51 3 0 222 -107 487 -237z"/>
</g>
</svg>
